<?xml version="1.0" encoding="utf-8"?>
<!-- Generator: Adobe Illustrator 22.0.1, SVG Export Plug-In . SVG Version: 6.00 Build 0)  -->
<svg version="1.1" id="圖層_1" xmlns="http://www.w3.org/2000/svg" xmlns:xlink="http://www.w3.org/1999/xlink" x="0px" y="0px"
	 viewBox="0 0 100 100" style="enable-background:new 0 0 100 100;" xml:space="preserve">
<style type="text/css">
	.st0{fill:#F8B62D;}
</style>
<g>
	<path class="st0" d="M50,95.2C25.1,95.2,4.8,74.9,4.8,50S25.1,4.8,50,4.8S95.2,25.1,95.2,50S74.9,95.2,50,95.2z M50,6.9
		C26.2,6.9,6.9,26.2,6.9,50S26.2,93.1,50,93.1S93.1,73.8,93.1,50S73.8,6.9,50,6.9z"/>
	<g>
		<g>
			<path class="st0" d="M61.5,24.4H38.5c-7.8,0-14.1,6.3-14.1,14.1v22.9c0,7.8,6.3,14.1,14.1,14.1h22.9c7.8,0,14.1-6.3,14.1-14.1
				V38.5C75.6,30.8,69.2,24.4,61.5,24.4z M71.9,61.9c0,5.5-4.5,10-10,10H38.1c-5.5,0-10-4.5-10-10V38.1c0-5.5,4.5-10,10-10h23.9
				c5.5,0,10,4.5,10,10L71.9,61.9L71.9,61.9z"/>
			<path class="st0" d="M50,36.8c-7.3,0-13.2,5.9-13.2,13.2c0,7.3,5.9,13.2,13.2,13.2S63.2,57.3,63.2,50
				C63.2,42.7,57.3,36.8,50,36.8z M50,59.7c-5.3,0-9.7-4.3-9.7-9.7c0-5.3,4.3-9.7,9.7-9.7s9.7,4.3,9.7,9.7
				C59.7,55.3,55.3,59.7,50,59.7z"/>
			<path class="st0" d="M63.7,34c-0.6,0-1.2,0.3-1.7,0.7c-0.4,0.4-0.7,1-0.7,1.7c0,0.6,0.3,1.2,0.7,1.7c0.4,0.4,1,0.7,1.7,0.7
				c0.6,0,1.2-0.3,1.7-0.7c0.4-0.4,0.7-1,0.7-1.7c0-0.6-0.3-1.2-0.7-1.7C65,34.2,64.3,34,63.7,34z"/>
		</g>
	</g>
</g>
</svg>
