<?xml version="1.0" encoding="utf-8"?>
<!-- Generator: Adobe Illustrator 22.0.1, SVG Export Plug-In . SVG Version: 6.00 Build 0)  -->
<svg version="1.1" id="圖層_1" xmlns="http://www.w3.org/2000/svg" xmlns:xlink="http://www.w3.org/1999/xlink" x="0px" y="0px"
	 viewBox="0 0 100 100" style="enable-background:new 0 0 100 100;" xml:space="preserve">
<style type="text/css">
	.st0{fill:#F8B62D;}
</style>
<g>
	<path class="st0" d="M50,95.2C25.1,95.2,4.8,74.9,4.8,50S25.1,4.8,50,4.8c24.9,0,45.2,20.3,45.2,45.2S74.9,95.2,50,95.2z M50,6.9
		C26.2,6.9,6.9,26.2,6.9,50S26.2,93.1,50,93.1S93.1,73.8,93.1,50S73.8,6.9,50,6.9z"/>
	<g>
		<path class="st0" d="M48.7,78.2c-0.6,0-1.3-0.2-1.8-0.6c-0.9-0.7-1.4-1.8-1.3-2.9l0.5-4.7C32.4,68.4,22,58.8,22,47.5
			C22,35,34.6,24.9,50.1,24.9c15,0,27.3,9.5,28,21.6c0,0.4,0.1,1.5,0,2.3c0,0.5-0.1,1.1-0.2,1.8c-0.4,2.2-1.1,4.3-2.2,6.3
			c-0.5,1-2.9,4.3-3.7,5.2c-4.8,5.8-12.2,11.1-21.9,15.8C49.7,78.1,49.2,78.2,48.7,78.2z M50.1,28.3c-13.6,0-24.7,8.6-24.7,19.3
			c0,9.6,9.2,17.8,21.4,19.1c0.8,0.1,1.6,0.5,2.1,1.1c0.5,0.7,0.8,1.5,0.7,2.3l-0.5,4.5c9.1-4.4,15.9-9.4,20.3-14.7
			c0.6-0.8,2.9-4,3.3-4.7c0.9-1.7,1.5-3.4,1.8-5.2l0,0c0.1-0.6,0.2-1,0.2-1.4c0-0.6,0-1.6,0-1.9C74.1,36.4,63.3,28.3,50.1,28.3z"/>
		<path class="st0" d="M35.6,51.8V43c0-0.7-0.6-1.3-1.3-1.3l0,0c-0.7,0-1.3,0.6-1.3,1.3v10.2c0,0.7,0.6,1.3,1.3,1.3h5.4
			c0.7,0,1.3-0.6,1.3-1.3l0,0c0-0.7-0.6-1.3-1.3-1.3H35.6z"/>
		<path class="st0" d="M43.9,54.5h-0.6c-0.6,0-1.1-0.5-1.1-1.1V42.7c0-0.6,0.5-1.1,1.1-1.1h0.6c0.6,0,1.1,0.5,1.1,1.1v10.8
			C44.9,54,44.5,54.5,43.9,54.5z"/>
		<path class="st0" d="M54.8,43v6.2c0,0-5.4-7-5.5-7.1c-0.3-0.3-0.6-0.5-1.1-0.5c-0.7,0-1.3,0.7-1.3,1.4v10.1c0,0.7,0.6,1.3,1.3,1.3
			l0,0c0.7,0,1.3-0.6,1.3-1.3V47c0,0,5.5,7.1,5.5,7.2c0.2,0.2,0.6,0.4,0.9,0.4c0.7,0,1.4-0.7,1.4-1.4V43c0-0.7-0.6-1.3-1.3-1.3l0,0
			C55.4,41.6,54.8,42.2,54.8,43z"/>
		<path class="st0" d="M67.6,43L67.6,43c0-0.7-0.6-1.3-1.3-1.3h-5.4c-0.7,0-1.3,0.6-1.3,1.3v10.2c0,0.7,0.6,1.3,1.3,1.3h5.4
			c0.7,0,1.3-0.6,1.3-1.3l0,0c0-0.7-0.6-1.3-1.3-1.3h-4v-2.4h4c0.7,0,1.3-0.6,1.3-1.3l0,0c0-0.7-0.6-1.3-1.3-1.3h-4v-2.4h4
			C67,44.3,67.6,43.7,67.6,43z"/>
	</g>
</g>
</svg>
