<?xml version="1.0" encoding="utf-8"?>
<!-- Generator: Adobe Illustrator 22.0.1, SVG Export Plug-In . SVG Version: 6.00 Build 0)  -->
<svg version="1.1" id="圖層_1" xmlns="http://www.w3.org/2000/svg" xmlns:xlink="http://www.w3.org/1999/xlink" x="0px" y="0px"
	 viewBox="0 0 100 100" style="enable-background:new 0 0 100 100;" xml:space="preserve">
<style type="text/css">
	.st0{fill:#F8B62D;}
</style>
<g>
	<path class="st0" d="M50,95.2C25.1,95.2,4.8,74.9,4.8,50S25.1,4.8,50,4.8S95.2,25.1,95.2,50S74.9,95.2,50,95.2z M50,6.9
		C26.2,6.9,6.9,26.2,6.9,50S26.2,93.1,50,93.1S93.1,73.8,93.1,50S73.8,6.9,50,6.9z"/>
	<g>
		<g>
			<path class="st0" d="M72.6,30.6H27.9c-2.6,0-4.8,2.1-4.8,4.8v31.8c0,2.6,2.1,4.8,4.8,4.8h44.7c2.6,0,4.8-2.1,4.8-4.8V35.4
				C77.4,32.8,75.2,30.6,72.6,30.6z M71.9,33.8L50.3,55.4L28.5,33.8H71.9z M26.3,66.5V36l15.3,15.2L26.3,66.5z M28.5,68.8l15.3-15.3
				l5.4,5.3c0.6,0.6,1.6,0.6,2.2,0l5.2-5.2l15.2,15.2H28.5z M74.2,66.5L58.9,51.3l15.2-15.2V66.5z"/>
		</g>
	</g>
</g>
</svg>
