<?xml version="1.0" encoding="utf-8"?>
<!-- Generator: Adobe Illustrator 22.0.1, SVG Export Plug-In . SVG Version: 6.00 Build 0)  -->
<svg version="1.1" id="圖層_1" xmlns="http://www.w3.org/2000/svg" xmlns:xlink="http://www.w3.org/1999/xlink" x="0px" y="0px"
	 viewBox="0 0 100 100" style="enable-background:new 0 0 100 100;" xml:space="preserve">
<style type="text/css">
	.st0{fill:none;}
	.st1{fill:#F8B62D;}
</style>
<g>
	<path class="st0" d="M72.5,38.3H15.4c-2.2,0-4,1.8-4,4v38.6c0,2.2,1.8,4,4,4h57.1c2.2,0,4-1.8,4-4V42.3
		C76.5,40,74.8,38.3,72.5,38.3z"/>
	<path class="st1" d="M72.5,32.8H15.4c-5.2,0-9.4,4.2-9.4,9.4v38.6c0,5.2,4.2,9.4,9.4,9.4h57.1c5.2,0,9.4-4.2,9.4-9.4V42.3
		C82,37.1,77.8,32.8,72.5,32.8z M76.5,42.3v38.6c0,2.2-1.8,4-4,4H15.4c-2.2,0-4-1.8-4-4V42.3c0-2.2,1.8-4,4-4h57.1
		C74.8,38.3,76.5,40,76.5,42.3z"/>
</g>
<path class="st1" d="M87.6,12.8H30.5c-5.2,0-9.4,4.2-9.4,9.4v6.6h5.4v-6.6c0-2.2,1.8-4,4-4h57.1c2.2,0,4,1.8,4,4v38.6
	c0,2.2-1.8,4-4,4h-0.1v5.4h0.1c5.2,0,9.4-4.2,9.4-9.4V22.2C97,17,92.8,12.8,87.6,12.8z"/>
</svg>
