<?xml version="1.0" encoding="utf-8"?>
<!-- Generator: Adobe Illustrator 22.0.1, SVG Export Plug-In . SVG Version: 6.00 Build 0)  -->
<svg version="1.1" id="圖層_1" xmlns="http://www.w3.org/2000/svg" xmlns:xlink="http://www.w3.org/1999/xlink" x="0px" y="0px"
	 viewBox="0 0 199.1 31.5" style="enable-background:new 0 0 199.1 31.5;" xml:space="preserve">
<style type="text/css">
	.st0{fill:#475EB3;}
	.st1{fill:#F8B62D;}
</style>
<path class="st0" d="M20.5,12.5l-2.1,9.9c-0.1,0.3-0.1,0.6-0.2,0.8c-0.1,0.2-0.1,0.3-0.2,0.4s-0.3,0.2-0.5,0.2
	c-0.5,0-0.8-0.3-0.8-0.8c0-0.1,0.1-0.5,0.2-1l2.1-9.9c0.1-0.5,0.2-0.9,0.3-1.1c0.1-0.2,0.3-0.3,0.6-0.3c0.3,0,0.4,0.1,0.6,0.2
	c0.1,0.1,0.2,0.3,0.2,0.6C20.7,11.7,20.6,12,20.5,12.5z"/>
<path class="st1" d="M35.9,20.9L33.5,11l-2.4,9.9c-0.2,0.8-0.3,1.3-0.4,1.6c-0.1,0.3-0.3,0.6-0.6,0.9s-0.6,0.4-1.1,0.4
	c-0.4,0-0.7-0.1-0.9-0.2s-0.4-0.4-0.6-0.7c-0.1-0.3-0.3-0.6-0.4-1c-0.1-0.4-0.2-0.7-0.2-1.1L24.5,9.7c-0.1-0.6-0.2-1.1-0.2-1.5
	c0-0.4,0.1-0.8,0.4-1.1s0.6-0.4,1-0.4c0.5,0,0.9,0.2,1.1,0.6c0.2,0.4,0.3,1,0.5,1.7l1.9,9.7l2.1-9.1c0.2-0.7,0.3-1.2,0.4-1.6
	c0.1-0.4,0.3-0.7,0.6-0.9c0.3-0.3,0.7-0.4,1.2-0.4c0.5,0,0.9,0.1,1.2,0.4c0.3,0.3,0.5,0.6,0.6,0.9c0.1,0.3,0.2,0.9,0.4,1.6l2.2,9.1
	L39.7,9c0.1-0.5,0.2-0.9,0.3-1.2c0.1-0.3,0.2-0.5,0.4-0.8c0.2-0.2,0.5-0.3,0.9-0.3s0.7,0.1,1,0.4c0.3,0.3,0.4,0.7,0.4,1.1
	c0,0.3-0.1,0.8-0.2,1.5L40,20.9c-0.2,0.8-0.3,1.3-0.4,1.7c-0.1,0.4-0.3,0.7-0.6,0.9c-0.3,0.3-0.6,0.4-1.1,0.4
	c-0.5,0-0.8-0.1-1.1-0.4c-0.3-0.3-0.5-0.5-0.6-0.9C36.2,22.3,36.1,21.7,35.9,20.9z"/>
<path class="st1" d="M58.3,9.6h-6.6v4.1h6.1c0.5,0,0.8,0.1,1,0.3c0.2,0.2,0.3,0.5,0.3,0.9c0,0.4-0.1,0.7-0.3,0.9
	c-0.2,0.2-0.6,0.4-1,0.4h-6.1v4.7h6.9c0.5,0,0.8,0.1,1,0.4c0.2,0.2,0.4,0.6,0.4,1c0,0.4-0.1,0.7-0.4,1c-0.2,0.2-0.6,0.4-1,0.4h-8
	c-0.6,0-1.1-0.2-1.4-0.5c-0.3-0.3-0.4-0.8-0.4-1.6V9c0-0.5,0.1-0.9,0.2-1.2c0.1-0.3,0.3-0.5,0.6-0.7s0.6-0.2,1-0.2h7.8
	c0.5,0,0.8,0.1,1,0.4c0.2,0.2,0.3,0.5,0.3,0.9c0,0.4-0.1,0.7-0.3,0.9C59.1,9.5,58.8,9.6,58.3,9.6z"/>
<path class="st1" d="M70.2,8.7l5.7,9.8V8.6c0-0.6,0.1-1.1,0.4-1.4c0.2-0.3,0.6-0.5,1-0.5c0.4,0,0.8,0.2,1,0.5
	c0.2,0.3,0.4,0.8,0.4,1.4v13c0,1.5-0.5,2.2-1.6,2.2c-0.3,0-0.5,0-0.7-0.1c-0.2-0.1-0.4-0.2-0.6-0.4c-0.2-0.2-0.4-0.4-0.5-0.7
	c-0.2-0.3-0.3-0.5-0.5-0.8l-5.5-9.6v9.7c0,0.6-0.1,1.1-0.4,1.4c-0.3,0.3-0.6,0.5-1,0.5c-0.4,0-0.8-0.2-1-0.5
	c-0.3-0.3-0.4-0.8-0.4-1.4V9.1c0-0.5,0.1-1,0.2-1.3c0.1-0.3,0.3-0.6,0.6-0.8c0.3-0.2,0.6-0.3,0.9-0.3c0.3,0,0.5,0,0.7,0.1
	s0.4,0.2,0.5,0.4c0.1,0.2,0.3,0.4,0.4,0.6C69.9,8.2,70,8.4,70.2,8.7z"/>
<path class="st0" d="M12.4,22.5c-0.2,0-0.3,0-0.5-0.1l-4.9-3.3c-0.2-0.1-0.4-0.4-0.4-0.7c0-0.3,0.1-0.5,0.3-0.7l4.9-4.1
	c0.4-0.3,0.9-0.3,1.2,0.1c0.3,0.4,0.3,0.9-0.1,1.2l-4,3.4l3.9,2.6c0.4,0.3,0.5,0.8,0.2,1.2C12.9,22.3,12.7,22.5,12.4,22.5z"/>
<path class="st0" d="M84.7,22.5c-0.2,0-0.5-0.1-0.7-0.3c-0.3-0.4-0.3-0.9,0.1-1.2l4-3.4L84.2,15c-0.4-0.3-0.5-0.8-0.2-1.2
	c0.3-0.4,0.8-0.5,1.2-0.2l4.9,3.3c0.2,0.1,0.4,0.4,0.4,0.7c0,0.3-0.1,0.5-0.3,0.7l-4.9,4.1C85.1,22.4,84.9,22.5,84.7,22.5z"/>
<g>
	<path class="st0" d="M104,7h3.8c1,0,1.9,0.1,2.6,0.3s1.4,0.6,1.9,1.2c1.5,1.5,2.3,3.7,2.3,6.7c0,1-0.1,1.9-0.2,2.7
		c-0.2,0.8-0.4,1.6-0.7,2.2c-0.3,0.7-0.7,1.2-1.2,1.8c-0.4,0.4-0.8,0.7-1.3,1c-0.5,0.2-1,0.4-1.5,0.5c-0.5,0.1-1.1,0.1-1.8,0.1H104
		c-0.5,0-0.9-0.1-1.2-0.3s-0.4-0.4-0.5-0.8c-0.1-0.3-0.1-0.8-0.1-1.3V9c0-0.7,0.1-1.2,0.4-1.6C102.9,7.2,103.3,7,104,7z M105.1,9.6
		v11.2h2.2c0.5,0,0.9,0,1.2,0s0.6-0.1,0.9-0.2c0.3-0.1,0.6-0.3,0.8-0.5c1-0.9,1.5-2.6,1.5-4.9c0-1.6-0.2-2.9-0.7-3.7
		c-0.4-0.8-1-1.3-1.6-1.6c-0.6-0.2-1.4-0.3-2.3-0.3H105.1z"/>
	<path class="st0" d="M128.8,9.6h-6.6v4.1h6.1c0.5,0,0.8,0.1,1,0.3c0.2,0.2,0.3,0.5,0.3,0.9c0,0.4-0.1,0.7-0.3,0.9
		c-0.2,0.2-0.6,0.4-1,0.4h-6.1v4.7h6.9c0.5,0,0.8,0.1,1,0.4c0.2,0.2,0.4,0.6,0.4,1c0,0.4-0.1,0.7-0.4,1c-0.2,0.2-0.6,0.4-1,0.4h-8
		c-0.6,0-1.1-0.2-1.4-0.5c-0.3-0.3-0.4-0.8-0.4-1.6V9c0-0.5,0.1-0.9,0.2-1.2c0.1-0.3,0.3-0.5,0.6-0.7s0.6-0.2,1-0.2h7.8
		c0.5,0,0.8,0.1,1,0.4c0.2,0.2,0.3,0.5,0.3,0.9c0,0.4-0.1,0.7-0.3,0.9C129.6,9.5,129.3,9.6,128.8,9.6z"/>
	<path class="st0" d="M145.9,18.6c0,1-0.2,1.9-0.7,2.7c-0.5,0.8-1.1,1.4-2,1.9s-1.9,0.7-3.1,0.7c-1.4,0-2.6-0.3-3.6-0.9
		c-0.7-0.4-1.2-1-1.6-1.8c-0.4-0.7-0.6-1.5-0.6-2.2c0-0.4,0.1-0.8,0.4-1c0.2-0.3,0.6-0.4,0.9-0.4c0.3,0,0.6,0.1,0.8,0.3
		c0.2,0.2,0.4,0.6,0.6,1c0.2,0.5,0.4,1,0.6,1.3c0.2,0.4,0.5,0.6,0.9,0.9c0.4,0.2,0.9,0.3,1.5,0.3c0.9,0,1.6-0.2,2.1-0.7
		c0.5-0.5,0.8-1,0.8-1.7c0-0.5-0.1-1-0.4-1.3s-0.7-0.6-1.1-0.8c-0.5-0.2-1.1-0.4-1.9-0.6c-1-0.3-1.9-0.6-2.6-1
		c-0.7-0.4-1.3-0.9-1.7-1.5c-0.4-0.6-0.6-1.4-0.6-2.4c0-0.9,0.2-1.7,0.7-2.4s1.1-1.3,1.9-1.6c0.8-0.4,1.8-0.6,2.9-0.6
		c0.9,0,1.7,0.1,2.3,0.4c0.7,0.3,1.2,0.6,1.6,1c0.4,0.4,0.7,0.9,0.9,1.3c0.2,0.5,0.3,0.9,0.3,1.3c0,0.4-0.1,0.8-0.4,1.1
		s-0.6,0.5-0.9,0.5c-0.3,0-0.6-0.1-0.8-0.3c-0.2-0.2-0.4-0.5-0.6-0.9c-0.3-0.6-0.6-1.1-1-1.5s-1-0.5-1.8-0.5c-0.8,0-1.4,0.2-1.8,0.6
		c-0.5,0.4-0.7,0.8-0.7,1.4c0,0.3,0.1,0.6,0.2,0.9s0.4,0.4,0.7,0.6c0.3,0.2,0.6,0.3,0.8,0.4c0.3,0.1,0.8,0.2,1.4,0.4
		c0.8,0.2,1.6,0.5,2.2,0.7s1.2,0.6,1.7,1c0.5,0.4,0.8,0.9,1.1,1.4C145.8,17,145.9,17.7,145.9,18.6z"/>
	<path class="st0" d="M150.5,21.8V8.7c0-0.7,0.1-1.2,0.4-1.5c0.3-0.3,0.6-0.5,1.1-0.5c0.4,0,0.8,0.2,1.1,0.5
		c0.3,0.3,0.4,0.8,0.4,1.5v13.1c0,0.7-0.1,1.2-0.4,1.5s-0.6,0.5-1.1,0.5c-0.4,0-0.8-0.2-1-0.5C150.7,23,150.5,22.5,150.5,21.8z"/>
	<path class="st0" d="M172.1,16.8V20c0,0.4,0,0.8-0.1,1c-0.1,0.3-0.2,0.5-0.4,0.7c-0.2,0.2-0.4,0.4-0.7,0.6
		c-0.9,0.5-1.7,0.9-2.5,1.2c-0.8,0.2-1.7,0.4-2.7,0.4c-1.1,0-2.1-0.2-3.1-0.6s-1.7-1-2.4-1.7s-1.1-1.6-1.5-2.7
		c-0.3-1.1-0.5-2.2-0.5-3.6c0-1.3,0.2-2.5,0.5-3.5c0.3-1.1,0.8-2,1.5-2.7c0.7-0.7,1.5-1.3,2.4-1.7c0.9-0.4,2-0.6,3.2-0.6
		c1,0,1.8,0.1,2.6,0.4s1.4,0.7,1.8,1.1c0.5,0.5,0.8,0.9,1.1,1.4c0.2,0.5,0.4,1,0.4,1.3c0,0.4-0.1,0.8-0.4,1.1
		c-0.3,0.3-0.6,0.4-1,0.4c-0.2,0-0.4-0.1-0.6-0.2s-0.4-0.3-0.5-0.5c-0.4-0.6-0.7-1.1-0.9-1.5c-0.3-0.3-0.6-0.6-1-0.8
		c-0.4-0.2-1-0.3-1.6-0.3c-0.7,0-1.3,0.1-1.8,0.4s-1,0.7-1.4,1.2c-0.4,0.5-0.7,1.1-0.9,1.9c-0.2,0.7-0.3,1.6-0.3,2.5
		c0,1.9,0.4,3.4,1.2,4.5c0.8,1,1.9,1.6,3.3,1.6c0.7,0,1.3-0.1,1.9-0.3c0.6-0.2,1.2-0.5,1.8-0.9v-2.7h-2.3c-0.5,0-1-0.1-1.2-0.3
		c-0.3-0.2-0.4-0.5-0.4-1c0-0.4,0.1-0.7,0.4-0.9c0.2-0.2,0.6-0.4,1-0.4h3.3c0.4,0,0.8,0,1,0.1c0.3,0.1,0.5,0.3,0.7,0.6
		C172,15.8,172.1,16.2,172.1,16.8z"/>
	<path class="st0" d="M180.8,8.7l5.7,9.8V8.6c0-0.6,0.1-1.1,0.4-1.4c0.2-0.3,0.6-0.5,1-0.5c0.4,0,0.8,0.2,1,0.5
		c0.2,0.3,0.4,0.8,0.4,1.4v13c0,1.5-0.5,2.2-1.6,2.2c-0.3,0-0.5,0-0.7-0.1c-0.2-0.1-0.4-0.2-0.6-0.4c-0.2-0.2-0.4-0.4-0.5-0.7
		c-0.2-0.3-0.3-0.5-0.5-0.8l-5.5-9.6v9.7c0,0.6-0.1,1.1-0.4,1.4c-0.3,0.3-0.6,0.5-1,0.5c-0.4,0-0.8-0.2-1-0.5
		c-0.3-0.3-0.4-0.8-0.4-1.4V9.1c0-0.5,0.1-1,0.2-1.3c0.1-0.3,0.3-0.6,0.6-0.8c0.3-0.2,0.6-0.3,0.9-0.3c0.3,0,0.5,0,0.7,0.1
		s0.4,0.2,0.5,0.4c0.1,0.2,0.3,0.4,0.4,0.6C180.5,8.2,180.6,8.4,180.8,8.7z"/>
</g>
</svg>
